# xmcd CD database file
#
# Track frame offsets:
#	151
#	23842
#	44955
#	66948
#	85953
#	104626
#	123839
#	149022
#	173687
#	192976
#	209673
#	234954
#	252549
#	276700
#	300981
#
# Disc length: 4290 seconds
#
# Revision: 2
# Processed by: cddbd v1.4PL0 Copyright (c) Steve Scherf et al.
# Submitted via: CDex 1.50Beta5
#
DISCID=eb10c00f
DTITLE=Salsa Selecta - Vol 1
DYEAR=2001
DGENRE=Salsa
TTITLE0=En Defensa Propia (Alex D' Castro)
TTITLE1=Esa Mujer (Alex Leon)
TTITLE2=Solo (Alex D' Castro)
TTITLE3=Los Olores del Amor (Amilkar B. and Willie C.)
TTITLE4=Necesito un Amor (Antonio Cartagena)
TTITLE5=Y Me Pregunto (Alex D' Castro)
TTITLE6=Mujer Ajena (Bobby Valentin)
TTITLE7=Cuando Te Vea (Bobby Valentin)
TTITLE8=Tirándote Flores (Bobby Valentin)
TTITLE9=Háblame (Carangano)
TTITLE10=Amigos (Conjunto Chaney)
TTITLE11=Un Nuevo Amor (Carangano)
TTITLE12=Amor de Primavera (Conjunto Chaney)
TTITLE13=Antídoto (Conjunto Chaney)
TTITLE14=Ella Dice (Conjunto Chaney)
EXTD=YEAR: 2001
EXTT0=
EXTT1=
EXTT2=
EXTT3=
EXTT4=
EXTT5=
EXTT6=
EXTT7=
EXTT8=
EXTT9=
EXTT10=
EXTT11=
EXTT12=
EXTT13=
EXTT14=
PLAYORDER=
